<svg id="logo" xmlns="http://www.w3.org/2000/svg" xmlns:xlink="http://www.w3.org/1999/xlink" width="151" height="172" viewBox="0 0 151 172"><defs><style>.cls-1{fill:url(#radial-gradient);}.cls-2{fill:url(#radial-gradient-2);}.cls-3{fill:url(#radial-gradient-3);}.cls-4{fill:url(#radial-gradient-4);}.cls-5{fill:url(#radial-gradient-5);}.cls-6{fill:url(#radial-gradient-6);}.cls-7{fill:url(#radial-gradient-7);}.cls-8{fill:url(#radial-gradient-8);}.cls-9{fill:url(#radial-gradient-9);}.cls-10{fill:url(#radial-gradient-10);}.cls-11{fill:url(#radial-gradient-11);}.cls-12{fill:url(#radial-gradient-12);}.cls-13{fill:url(#radial-gradient-13);}.cls-14{fill:url(#radial-gradient-14);}.cls-15{fill:url(#radial-gradient-15);}.cls-16{fill:url(#radial-gradient-16);}.cls-17{fill:url(#radial-gradient-17);}.cls-18{fill:url(#radial-gradient-18);}.cls-19{fill:url(#radial-gradient-19);}.cls-20{fill:url(#radial-gradient-20);}.cls-21{fill:url(#radial-gradient-21);}.cls-22{fill:url(#radial-gradient-22);}.cls-23{fill:url(#radial-gradient-23);}.cls-24{fill:url(#radial-gradient-24);}.cls-25{fill:url(#radial-gradient-25);}.cls-26{fill:url(#radial-gradient-26);}.cls-27{fill:url(#radial-gradient-27);}.cls-28{fill:url(#radial-gradient-28);}.cls-29{fill:url(#radial-gradient-29);}.cls-30{fill:url(#radial-gradient-30);}.cls-31{fill:url(#radial-gradient-31);}.cls-32{fill:url(#radial-gradient-32);}.cls-33{fill:url(#radial-gradient-33);}.cls-34{fill:url(#radial-gradient-34);}.cls-35{fill:url(#radial-gradient-35);}.cls-36{fill:url(#radial-gradient-36);}.cls-37{fill:url(#radial-gradient-37);}.cls-38{fill:url(#radial-gradient-38);}.cls-39{fill:url(#radial-gradient-39);}.cls-40{fill:url(#radial-gradient-40);}.cls-41{fill:url(#radial-gradient-41);}.cls-42{fill:none;}.cls-43{fill:url(#radial-gradient-42);}.cls-44{fill:url(#radial-gradient-43);}.cls-45{fill:url(#radial-gradient-44);}.cls-46{fill:url(#radial-gradient-45);}.cls-47{fill:url(#radial-gradient-46);}.cls-48{fill:url(#radial-gradient-47);}.cls-49{fill:url(#radial-gradient-48);}.cls-50{fill:url(#radial-gradient-49);}.cls-51{fill:url(#radial-gradient-50);}.cls-52{fill:url(#radial-gradient-51);}.cls-53{fill:url(#radial-gradient-52);}.cls-54{fill:url(#radial-gradient-53);}.cls-55{fill:url(#radial-gradient-54);}.cls-56{fill:url(#radial-gradient-55);}.cls-57{fill:url(#radial-gradient-56);}.cls-58{fill:url(#radial-gradient-57);}.cls-59{fill:url(#radial-gradient-58);}.cls-60{fill:url(#radial-gradient-59);}.cls-61{fill:url(#radial-gradient-60);}.cls-62{fill:url(#radial-gradient-61);}.cls-63{fill:url(#radial-gradient-62);}.cls-64{fill:url(#radial-gradient-63);}.cls-65{fill:url(#radial-gradient-64);}.cls-66{fill:url(#radial-gradient-65);}.cls-67{fill:url(#radial-gradient-66);}.cls-68{fill:url(#radial-gradient-67);}.cls-69{fill:#fff;}.cls-70{fill:url(#linear-gradient);}.cls-71{fill:#f78e1e;}.cls-72{fill:#00a0af;}</style><radialGradient id="radial-gradient" cx="29.96029" cy="30.62819" r="30.89987" gradientTransform="translate(1.02428 0.05053) scale(2.4673 1.8745)" gradientUnits="userSpaceOnUse"><stop offset="0" stop-color="#ffcf01"/><stop offset="0.23881" stop-color="#ffd004"/><stop offset="0.42588" stop-color="#ffd20e"/><stop offset="0.5954" stop-color="#ffd51f"/><stop offset="0.75454" stop-color="#ffda36"/><stop offset="0.90505" stop-color="#ffe054"/><stop offset="1" stop-color="#ffe56b"/></radialGradient><radialGradient id="radial-gradient-2" cx="73.98168" cy="74.81671" r="86.78008" gradientUnits="userSpaceOnUse"><stop offset="0" stop-color="#fff797"/><stop offset="0.01919" stop-color="#fff381"/><stop offset="0.07102" stop-color="#ffea4a"/><stop offset="0.11572" stop-color="#ffe322"/><stop offset="0.15103" stop-color="#ffdf09"/><stop offset="0.17259" stop-color="#fd0"/><stop offset="0.33553" stop-color="#ffd800"/><stop offset="0.76142" stop-color="#ffcf01"/><stop offset="1" stop-color="#fd0"/></radialGradient><radialGradient id="radial-gradient-3" cx="29.76485" cy="30.60304" r="30.95882" gradientTransform="translate(1.02428 0.05053) scale(2.4673 1.8745)" gradientUnits="userSpaceOnUse"><stop offset="0" stop-color="#ffcf01"/><stop offset="0.00062" stop-color="#ffcf01"/><stop offset="0.46356" stop-color="#ffda00"/><stop offset="1" stop-color="#fd0"/></radialGradient><radialGradient id="radial-gradient-4" cx="73.97888" cy="74.78176" r="86.74955" xlink:href="#radial-gradient-2"/><radialGradient id="radial-gradient-5" cx="74.99748" cy="74.93699" fx="164.47773802847894" fy="41.836346210694764" r="95.40634" gradientTransform="translate(0 -29.9748) scale(1 1.4)" gradientUnits="userSpaceOnUse"><stop offset="0" stop-color="#fff797"/><stop offset="0.07733" stop-color="#fff381"/><stop offset="0.28618" stop-color="#ffea4a"/><stop offset="0.46628" stop-color="#ffe322"/><stop offset="0.60858" stop-color="#ffdf09"/><stop offset="0.69543" stop-color="#fd0"/><stop offset="1" stop-color="#fd0"/></radialGradient><radialGradient id="radial-gradient-6" cx="29.96684" cy="30.62898" r="30.89453" xlink:href="#radial-gradient-3"/><radialGradient id="radial-gradient-7" cx="29.96701" cy="30.62688" r="30.89861" xlink:href="#radial-gradient-3"/><radialGradient id="radial-gradient-8" cx="29.96672" cy="30.62779" r="30.89611" xlink:href="#radial-gradient-3"/><radialGradient id="radial-gradient-9" cx="29.96683" cy="30.62749" r="30.89675" xlink:href="#radial-gradient-3"/><radialGradient id="radial-gradient-10" cx="29.96671" cy="30.62647" r="30.89836" xlink:href="#radial-gradient-3"/><radialGradient id="radial-gradient-11" cx="29.96708" cy="30.62766" r="30.89503" xlink:href="#radial-gradient-3"/><radialGradient id="radial-gradient-12" cx="29.9664" cy="30.62671" r="30.8983" xlink:href="#radial-gradient-3"/><radialGradient id="radial-gradient-13" cx="29.96711" cy="30.62814" r="30.89636" xlink:href="#radial-gradient-3"/><radialGradient id="radial-gradient-14" cx="29.9667" cy="30.62789" r="30.89641" xlink:href="#radial-gradient-3"/><radialGradient id="radial-gradient-15" cx="29.96663" cy="30.62714" r="30.89766" xlink:href="#radial-gradient-3"/><radialGradient id="radial-gradient-16" cx="29.9672" cy="30.6277" r="30.8971" xlink:href="#radial-gradient-3"/><radialGradient id="radial-gradient-17" cx="29.96709" cy="30.62782" r="30.89638" xlink:href="#radial-gradient-3"/><radialGradient id="radial-gradient-18" cx="29.96689" cy="30.62853" r="30.89484" xlink:href="#radial-gradient-3"/><radialGradient id="radial-gradient-19" cx="29.96698" cy="30.62702" r="30.89786" xlink:href="#radial-gradient-3"/><radialGradient id="radial-gradient-20" cx="29.96668" cy="30.62737" r="30.89668" xlink:href="#radial-gradient-3"/><radialGradient id="radial-gradient-21" cx="29.96669" cy="30.62801" r="30.8967" xlink:href="#radial-gradient-3"/><radialGradient id="radial-gradient-22" cx="29.96679" cy="30.62664" r="30.8978" xlink:href="#radial-gradient-3"/><radialGradient id="radial-gradient-23" cx="73.9942" cy="74.79604" r="86.714" xlink:href="#radial-gradient-2"/><radialGradient id="radial-gradient-24" cx="29.92001" cy="30.13786" r="31.34124" xlink:href="#radial-gradient-3"/><radialGradient id="radial-gradient-25" cx="27.18306" cy="74.78085" r="20.98133" gradientUnits="userSpaceOnUse"><stop offset="0" stop-color="#ffe672"/><stop offset="0.07227" stop-color="#ffe569"/><stop offset="0.20659" stop-color="#ffe461"/><stop offset="0.41104" stop-color="#ffe45e"/><stop offset="1" stop-color="#ffe24f"/></radialGradient><radialGradient id="radial-gradient-26" cx="52.20952" cy="27.20357" r="23.4951" xlink:href="#radial-gradient-25"/><radialGradient id="radial-gradient-27" cx="122.36522" cy="74.77985" r="21.13234" xlink:href="#radial-gradient-25"/><radialGradient id="radial-gradient-28" cx="74.86278" cy="103.86386" r="9.23982" xlink:href="#radial-gradient-25"/><radialGradient id="radial-gradient-29" cx="74.86325" cy="25.93929" r="20.0351" xlink:href="#radial-gradient-25"/><radialGradient id="radial-gradient-30" cx="88.01365" cy="103.07676" r="11.07639" xlink:href="#radial-gradient-25"/><radialGradient id="radial-gradient-31" cx="97.53517" cy="27.23329" r="23.50116" xlink:href="#radial-gradient-25"/><radialGradient id="radial-gradient-32" cx="27.6535" cy="52.28476" r="23.93182" xlink:href="#radial-gradient-25"/><radialGradient id="radial-gradient-33" cx="44.94329" cy="101.31405" r="17.0874" xlink:href="#radial-gradient-25"/><radialGradient id="radial-gradient-34" cx="29.84537" cy="29.91577" r="31.75229" xlink:href="#radial-gradient-25"/><radialGradient id="radial-gradient-35" cx="121.96827" cy="52.33258" r="24.01942" xlink:href="#radial-gradient-25"/><radialGradient id="radial-gradient-36" cx="28.56141" cy="96.91216" r="24.61621" xlink:href="#radial-gradient-25"/><radialGradient id="radial-gradient-37" cx="61.69186" cy="103.1578" r="11.01992" xlink:href="#radial-gradient-25"/><radialGradient id="radial-gradient-38" cx="121.03464" cy="97.00445" r="24.67504" xlink:href="#radial-gradient-25"/><radialGradient id="radial-gradient-39" cx="119.80863" cy="29.95909" r="31.81126" xlink:href="#radial-gradient-25"/><radialGradient id="radial-gradient-40" cx="104.68164" cy="101.19879" r="17.19455" xlink:href="#radial-gradient-25"/><radialGradient id="radial-gradient-41" cx="104.68257" cy="101.20321" r="17.18811" xlink:href="#radial-gradient-25"/><radialGradient id="radial-gradient-42" cx="74.75007" cy="43.46988" r="111.56949" gradientTransform="translate(1.7561 -0.2678) scale(1.0992 1.062)" gradientUnits="userSpaceOnUse"><stop offset="0" stop-color="#fff797"/><stop offset="0.02103" stop-color="#fff58c"/><stop offset="0.14058" stop-color="#ffeb50"/><stop offset="0.24243" stop-color="#ffe325"/><stop offset="0.32149" stop-color="#ffdf0a"/><stop offset="0.3681" stop-color="#fd0"/><stop offset="0.46247" stop-color="#fecf05"/><stop offset="0.821" stop-color="#f9a017"/><stop offset="1" stop-color="#f78e1e"/></radialGradient><radialGradient id="radial-gradient-43" cx="72.50177" cy="44.00226" r="109.59989" gradientTransform="translate(-20.34062 -5.792) scale(1.1161 1.0928)" xlink:href="#radial-gradient-42"/><radialGradient id="radial-gradient-44" cx="73.98124" cy="47.00857" r="98.13884" gradientTransform="translate(-14.15825 -34.6046) scale(1.1582 1.2752)" xlink:href="#radial-gradient-42"/><radialGradient id="radial-gradient-45" cx="75.55687" cy="42.42925" r="110.31069" gradientTransform="translate(1.95987 -9.21765) scale(1.1185 1.1494)" xlink:href="#radial-gradient-42"/><radialGradient id="radial-gradient-46" cx="73.45043" cy="43.34303" r="107.46669" gradientTransform="translate(-17.1419 -18.77088) scale(1.1136 1.1433)" xlink:href="#radial-gradient-42"/><radialGradient id="radial-gradient-47" cx="72.44734" cy="42.08423" r="110.30433" gradientTransform="translate(-19.35015 -18.02855) scale(1.1118 1.207)" xlink:href="#radial-gradient-42"/><radialGradient id="radial-gradient-48" cx="74.06094" cy="40.54805" r="110.3139" gradientTransform="translate(-14.75027 -31.27405) scale(1.2439 1.2478)" xlink:href="#radial-gradient-42"/><radialGradient id="radial-gradient-49" cx="74.48982" cy="43.72293" r="110.29871" gradientTransform="translate(-2.82527 1.77135) scale(1.1155 1.0922)" xlink:href="#radial-gradient-42"/><radialGradient id="radial-gradient-50" cx="74.55653" cy="43.70436" r="110.30094" gradientTransform="translate(-8.04335 2.41315) scale(1.1502 1.1114)" xlink:href="#radial-gradient-42"/><radialGradient id="radial-gradient-51" cx="74.8931" cy="40.91321" r="110.30086" gradientTransform="translate(-11.03377 -25.10865) scale(1.2283 1.1986)" xlink:href="#radial-gradient-42"/><radialGradient id="radial-gradient-52" cx="75.6788" cy="41.4047" r="110.29167" gradientTransform="translate(-0.59112 -13.82112) scale(1.1209 1.1107)" xlink:href="#radial-gradient-42"/><radialGradient id="radial-gradient-53" cx="72.53411" cy="43.41707" r="110.29838" gradientTransform="translate(-16.92052 -0.86267) scale(1.0981 1.0737)" xlink:href="#radial-gradient-42"/><radialGradient id="radial-gradient-54" cx="73.81168" cy="43.50061" r="110.32385" gradientTransform="translate(-13.65598 2.77593) scale(1.1335 1.1157)" xlink:href="#radial-gradient-42"/><radialGradient id="radial-gradient-55" cx="73.70887" cy="44.50275" r="103.51324" gradientTransform="translate(-0.10358 -34.77672) scale(1.0003 1.2715)" xlink:href="#radial-gradient-42"/><radialGradient id="radial-gradient-56" cx="74.24096" cy="43.74458" r="111.47207" gradientTransform="translate(-0.10358 2.30735) scale(1.0003 1.1226)" xlink:href="#radial-gradient-42"/><radialGradient id="radial-gradient-57" cx="73.32426" cy="40.682" r="110.29423" gradientTransform="translate(-16.5369 -27.09322) scale(1.1604 1.2155)" xlink:href="#radial-gradient-42"/><radialGradient id="radial-gradient-58" cx="73.2412" cy="43.48483" r="110.94666" gradientTransform="translate(-14.60503 2.16925) scale(1.1153 1.1042)" xlink:href="#radial-gradient-42"/><radialGradient id="radial-gradient-59" cx="75.70591" cy="43.37739" r="110.3054" gradientTransform="translate(1.48655 -5.02285) scale(1.109 1.1182)" xlink:href="#radial-gradient-42"/><radialGradient id="radial-gradient-60" cx="75.81496" cy="37.26101" r="117.52425" gradientTransform="translate(-5.69912 -17.61463) scale(1.1749 1.1407)" xlink:href="#radial-gradient-42"/><radialGradient id="radial-gradient-61" cx="75.0251" cy="43.43875" r="110.30144" gradientTransform="translate(0.5292 1.41017) scale(1.0888 1.0715)" xlink:href="#radial-gradient-42"/><radialGradient id="radial-gradient-62" cx="1248.00372" cy="-1700.38922" r="5396.88379" gradientTransform="translate(1.85692 -8.58635) scale(1.1111 1.1014)" xlink:href="#radial-gradient-42"/><radialGradient id="radial-gradient-63" cx="72.35804" cy="43.43307" r="109.79556" gradientTransform="translate(-18.73032 -4.11712) scale(1.1109 1.0947)" xlink:href="#radial-gradient-42"/><radialGradient id="radial-gradient-64" cx="75.81727" cy="41.56021" r="111.32069" gradientTransform="translate(1.26808 -12.1048) scale(1.1061 1.1052)" xlink:href="#radial-gradient-42"/><radialGradient id="radial-gradient-65" cx="72.64102" cy="41.44074" r="110.29747" gradientTransform="translate(-17.05955 -12.95287) scale(1.0982 1.1197)" xlink:href="#radial-gradient-42"/><radialGradient id="radial-gradient-66" cx="38.45536" cy="70.03343" r="148.89077" gradientTransform="translate(-13.27728 0.94353) scale(1.0863 1.0701)" xlink:href="#radial-gradient-42"/><radialGradient id="radial-gradient-67" cx="71.95839" cy="41.22707" r="110.91996" gradientTransform="translate(-17.66113 -22.51965) scale(1.1429 1.1766)" xlink:href="#radial-gradient-42"/><linearGradient id="linear-gradient" x1="74.09799" y1="124.13669" x2="74.09799" y2="85.88846" gradientUnits="userSpaceOnUse"><stop offset="0.02" stop-color="#f4f8f9" stop-opacity="0"/><stop offset="0.1" stop-color="#fff"/><stop offset="0.18909" stop-color="#f4f8f9"/><stop offset="0.40032" stop-color="#d9e7eb"/><stop offset="0.51784" stop-color="#addce6"/><stop offset="0.62722" stop-color="#8bd3e2"/><stop offset="0.68628" stop-color="#7ed0e0"/><stop offset="0.7316" stop-color="#78cee1"/><stop offset="0.79349" stop-color="#66cae3"/><stop offset="0.86495" stop-color="#4ac2e6"/><stop offset="0.94297" stop-color="#22b7eb"/><stop offset="1" stop-color="#00aeef"/></linearGradient></defs><title>fl health_clr_web</title><path class="cls-1" d="M130.92085,103.20855l-40.5156-20.541c.2559-.3906.5049-.789.7305-1.2011.1367-.25.2509-.5118.3769-.7676.0674-.1387.1348-.2754.1992-.4141l42.8907,14.0332,15.3037,5.0088V80.53865l-12.374-.9472-44.46589-3.4063a18.749,18.749,0,0,0,.32909-2.832l44.1368-3.3828,12.374-.9493V50.237l-15.3037,5.0063L93.08985,68.82575c-.0752-.3808-.1739-.7539-.27149-1.1269-.07031-.2735-.12791-.5528-.21-.8203-.09761-.3184-.22171-.6211-.33591-.9317l38.6484-19.5923,18.9854-9.6245V10.43275l-27.3272,23.43751-32.4814,27.8559a19.0028,19.0028,0,0,0-1.9824-2.4082c-.0567-.0566-.1055-.1211-.1621-.1777l13.372-15.2266,14.45021-16.8476,6.60159-7.6988L138.99315-.00625h-26.207l-9.4961,18.73051-2.26469,4.4673-16.77051,33.082c-.10449-.063-.206-.1289-.31249-.189q-.36031-.2073-.73141-.3979a18.81708,18.81708,0,0,0-1.8389-.8223l13.02931-39.8218L99.32515-.00625H80.60345l-.9296,12.11871-3.1856,41.5732c-.6211-.061-1.25-.0952-1.8867-.0952-.11819,0-.2324.0161-.3506.018-.2803.0049-.55659.024-.835.042-.05859.0039-.1201.0039-.17959.0088l-3.1846-41.5468L69.12305-.00625H50.40185l4.9238,15.04881,12.9732,39.6509a18.69113,18.69113,0,0,0-2.9502,1.3369L46.437,18.72426,36.94136-.00625H10.73385l23.2183,27.07131,27.4131,31.9658c-.1119.1094-.2159.2285-.3247.33989-.1968.205-.3843.416-.5708.6289q-.61455.6972-1.1592,1.4531L27.14845,33.87026-.01564,10.57236v26.2398l18.8223,9.5424,38.206,19.3677q-.31425.8232-.5527,1.6797c-.0762.2773-.1499.5527-.2139.832-.0327.1446-.0776.2852-.1069.4278L15.12445,55.24326l-15.1401-4.9531V69.03475l12.2104.9356,43.6104,3.3418a18.86149,18.86149,0,0,0,.3286,2.8515l-1.2246.1543-42.7144,3.2735-12.2104.9355v18.7451l15.1401-4.9541,37.6094-12.3066,4.7168-1.8106c.0352.0782.0752.1543.1118.2325.0865.1835.1719.3691.2647.5488a18.77807,18.77807,0,0,0,1.0942,1.8906l-40.1147,20.3359-18.8223,9.5411v.2441h30.3115l31.3604-26.8965c.2314.2188.4658.4375.708.6426.2207.1894.4477.3711.6767.5488.2212.1719.4454.3418.6748.5039l-21.6142,25.2012h13.3808l11.7666-23.209a19.44726,19.44726,0,0,0,2.1719.75c.0908.0254.1836.0449.2735.0684l-5.667,22.3906h7.8711l1.5009-21.7813c.22459.0118,2.22459.0235,2.72949-.0156l1.6709,21.7969h9.55761l-7.36621-22.5137c.5088-.1523,1.0039-.3301,1.49421-.5234.26949-.1074.53609-.2149.80079-.334l4.6045,8.8672,7.3525,14.5039H107.626l-21.8193-25.4395c.042-.0312.0849-.0644.1269-.0957a18.84932,18.84932,0,0,0,1.8682-1.5918l31.6299,27.127h30.4746v-.1602ZM112.91015.07186h.0039l-.083.1573Z"/><polygon class="cls-2" points="112.91 0.072 112.831 0.229 112.914 0.072 112.91 0.072"/><polygon class="cls-3" points="112.91 0.072 112.831 0.229 112.914 0.072 112.91 0.072"/><path class="cls-4" d="M86.72945,98.02205l-4.41009-8.7012c-.02931.0127-.05771.0284-.087.0411Z"/><path class="cls-5" d="M86.72945,98.02205l-4.41009-8.7012c-.02931.0127-.05771.0284-.087.0411Z"/><path class="cls-6" d="M86.72945,98.02205l-4.41009-8.7012c-.02931.0127-.05771.0284-.087.0411Z"/><path class="cls-7" d="M54.90915,76.318l1.2246-.1543a18.86149,18.86149,0,0,1-.3286-2.8515l-43.6104-3.3418-12.2104-.9356V80.527l12.2104-.9355Z"/><path class="cls-8" d="M65.34865,56.03036a18.69113,18.69113,0,0,1,2.9502-1.3369l-12.9732-39.6509L50.40185-.00625H36.94136L46.437,18.72426Z"/><path class="cls-9" d="M93.39545,73.35315a18.749,18.749,0,0,1-.32909,2.832l44.46589,3.4063,12.374.9472V69.02105l-12.374.9493Z"/><path class="cls-10" d="M73.39936,91.21245l-1.5009,21.7813h5.9013l-1.6709-21.7969C75.624,91.236,73.624,91.22425,73.39936,91.21245Z"/><path class="cls-11" d="M73.23636,53.65926c.0595-.0049.121-.0049.17959-.0088.27841-.018.5547-.0371.835-.042.1182-.0019.23241-.018.3506-.018.6367,0,1.2656.0342,1.8867.0952l3.1856-41.5732.9296-12.11871H69.12305l.9287,12.11871Z"/><path class="cls-12" d="M82.28615,89.62265c-.2647.1191-.5313.2266-.80079.334-.49031.1933-.98541.3711-1.49421.5234l7.36621,22.5137h6.88579l-7.3525-14.5039Z"/><path class="cls-13" d="M81.37205,54.86436a18.81708,18.81708,0,0,1,1.8389.8223q.372.19035.73141.3979c.10649.0601.208.126.31249.189l16.77051-33.082,2.26469-4.4673,9.4961-18.73051h-13.461L94.40136,15.04256Z"/><path class="cls-14" d="M56.13915,68.66175c.0293-.1426.0742-.2832.1069-.4278.064-.2793.1377-.5547.2139-.832q.238-.85545.5527-1.6797l-38.206-19.3677-18.8223-9.5424v13.478l15.1401,4.9531Z"/><path class="cls-15" d="M63.041,87.28865c-.229-.1777-.456-.3594-.6767-.5488-.2422-.2051-.4766-.4238-.708-.6426l-31.3604,26.8965h11.8057l21.6142-25.2012C63.48636,87.63045,63.26215,87.46055,63.041,87.28865Z"/><path class="cls-16" d="M59.31055,61.45275q.54421-.75584,1.1592-1.4531c.1865-.2129.374-.4239.5708-.6289.1088-.11139.2128-.23049.3247-.33989l-27.4131-31.9658L10.73385-.00625H-.01564V10.57236l27.1641,23.2979Z"/><path class="cls-17" d="M92.27245,65.94685c.1142.3106.2383.6133.33591.9317.08209.2675.13969.5468.21.8203.09759.373.19629.7461.27149,1.1269l41.5127-13.58249,15.3037-5.0063V36.73006l-18.9854,9.6245Z"/><path class="cls-18" d="M58.92136,82.87265a18.77807,18.77807,0,0,1-1.0942-1.8906c-.0928-.1797-.1782-.3653-.2647-.5488-.0366-.0782-.0766-.1543-.1118-.2325l-4.7168,1.8106L15.12445,94.318l-15.1401,4.9541v13.4776l18.8223-9.5411Z"/><path class="cls-19" d="M69.42085,90.53475a19.44726,19.44726,0,0,1-2.1719-.75l-11.7666,23.209h8.545l5.667-22.3906C69.60445,90.57965,69.51165,90.56015,69.42085,90.53475Z"/><path class="cls-20" d="M91.71185,80.28475c-.0644.1387-.1318.2754-.1992.4141-.126.2558-.2402.5176-.3769.7676-.2256.4121-.4746.8105-.7305,1.2011l40.5156,20.541,18.9854,9.625V99.32675l-15.3037-5.0088Z"/><path class="cls-21" d="M115.77536,27.06606l-14.45021,16.8476-13.372,15.2266c.0566.0566.1054.1211.1621.1777a19.0028,19.0028,0,0,1,1.9824,2.4082l32.4814-27.8559,27.3272-23.43751V-.00625h-10.9131L122.377,19.36726Z"/><path class="cls-22" d="M85.93355,87.45855c-.042.0313-.0849.0645-.1269.0957l21.8193,25.4395h.0459l-.10249-.1191.10639.1191h11.7559l-31.6299-27.127A18.84932,18.84932,0,0,1,85.93355,87.45855Z"/><polygon class="cls-23" points="107.672 112.994 107.676 112.994 107.569 112.875 107.672 112.994"/><polygon class="cls-24" points="107.672 112.994 107.676 112.994 107.569 112.875 107.672 112.994"/><path class="cls-25" d="M54.90915,76.318l1.3843-.1543a18.86149,18.86149,0,0,1-.3286-2.8515l-43.7701-3.3418-12.2104-.9356V80.527l12.2104-.9355Z"/><path class="cls-26" d="M65.44436,56.22226a18.69088,18.69088,0,0,1,2.9502-1.3369l-13.0689-39.8428L50.40185-.00625H36.94136L46.437,18.72426Z"/><path class="cls-27" d="M93.39545,73.35315a18.749,18.749,0,0,1-.32909,2.832l44.46589,3.4063,12.374.9472V69.02105l-12.374.9493Z"/><path class="cls-28" d="M73.39936,91.21245l-1.5009,21.7813h5.9013l-1.6709-21.7969C75.624,91.236,73.624,91.22425,73.39936,91.21245Z"/><path class="cls-29" d="M73.23636,53.65926c.0595-.0049.121-.0049.17959-.0088.27841-.018.5547-.0371.835-.042.1182-.0019.23241-.018.3506-.018.6367,0,1.2656.0342,1.8867.0952l3.1856-41.5732.9296-12.11871H69.12305l.9287,12.11871Z"/><path class="cls-30" d="M82.28615,89.62265c-.2647.1191-.5313.2266-.80079.334-.49031.1933-.98541.3711-1.49421.5234l7.36621,22.5137h6.88579l-7.3525-14.5039Z"/><path class="cls-31" d="M81.37205,54.86436a18.81708,18.81708,0,0,1,1.8389.8223q.372.19035.73141.3979c.10649.0601.208.126.31249.189l16.77051-33.082,2.26469-4.4673,9.4961-18.73051h-13.461L94.40136,15.04256Z"/><path class="cls-32" d="M56.36275,68.72615c.0293-.1426.0742-.2832.107-.4277.0639-.2793.1376-.5547.2138-.832q.238-.8556.5528-1.6797L18.80665,46.35456l-18.8223-9.5424v13.478l15.1401,4.9531Z"/><path class="cls-33" d="M63.041,87.28865c-.229-.1777-.456-.3594-.6767-.5488-.2422-.2051-.4766-.4238-.708-.6426l-31.3604,26.8965h11.8057l21.6142-25.2012C63.48636,87.63045,63.26215,87.46055,63.041,87.28865Z"/><path class="cls-34" d="M59.56585,61.64515q.5442-.75585,1.1592-1.4532c.1865-.2128.374-.4238.5708-.6289.1089-.11131.2129-.2304.3247-.3398l-27.6684-32.1582L10.73385-.00625H-.01564V10.57236l27.1641,23.2979Z"/><path class="cls-35" d="M92.27245,65.94685c.1142.3106.2383.6133.33591.9317.08209.2675.13969.5468.21.8203.09759.373.19629.7461.27149,1.1269l41.5127-13.58249,15.3037-5.0063V36.73006l-18.9854,9.6245Z"/><path class="cls-36" d="M59.04885,82.777a18.7611,18.7611,0,0,1-1.0943-1.8906c-.0928-.1797-.1782-.3653-.2646-.5489-.0367-.0781-.0767-.1542-.1118-.2324l-4.8443,1.9063L15.12445,94.318l-15.1401,4.9541v13.4776l18.8223-9.5411Z"/><path class="cls-37" d="M69.42085,90.53475a19.44726,19.44726,0,0,1-2.1719-.75l-11.7666,23.209h8.545l5.667-22.3906C69.60445,90.57965,69.51165,90.56015,69.42085,90.53475Z"/><path class="cls-38" d="M91.71185,80.28475c-.0644.1387-.1318.2754-.1992.4141-.126.2558-.2402.5176-.3769.7676-.2256.4121-.4746.8105-.7305,1.2011l40.5156,20.541,18.9854,9.625V99.32675l-15.3037-5.0088Z"/><path class="cls-39" d="M115.77536,27.06606l-14.45021,16.8476-13.372,15.2266c.0566.0566.1054.1211.1621.1777a19.0028,19.0028,0,0,1,1.9824,2.4082l32.4814-27.8559,27.3272-23.43751V-.00625h-10.9131L122.377,19.36726Z"/><path class="cls-40" d="M85.93355,87.45855c-.042.0313-.0849.0645-.1269.0957l21.8193,25.4395h.0459l-.10249-.1191.10639.1191h11.7559l-31.6299-27.127A18.84932,18.84932,0,0,1,85.93355,87.45855Z"/><polygon class="cls-41" points="107.672 112.994 107.676 112.994 107.569 112.875 107.672 112.994"/><path class="cls-42" d="M91.43745,77.67735c.1143-.4756.2422-.9473.33791-1.4336l58.13089,7.9404V66.901L91.98436,73.527c0-.0342.00289-.0645.00289-.0967,0-.415-.04389-.8164-.0615-1.2295l57.9805-6.1377V47.14126l-58.1465,21.8388c-.1133-.4267-.2051-.8613-.3359-1.2842l58.4824-21.3955V23.05966l-60.209,41.0122c-.2188-.3701-.4492-.7373-.6836-1.0986l60.8926-40.7217V-.00625h-9.1367l-53.5518,60.7607c-.3027-.3017-.6367-.5761-.9551-.8632l53.7041-59.8975H113.69336L83.32905,57.84286q-.577-.3288-1.1718-.6304L112.80665-.00625H92.60155L78.82025,56.06116c-.4404-.10941-.8681-.2412-1.3125-.332L91.72755-.00625H55.71185l14.5459,55.98341c-.4443.124-.8818.26759-1.3164.4121L54.82325-.00625H34.66255l31.1831,57.56491c-.3838.23-.7778.4419-1.1523.68509l-30.8965-58.25H7.33785l54.9155,60.4727c-.3046.3134-.5981.6406-.8901.9658L6.53125-.00625H-.01564V23.76766l59.4668,40.9927c-.2217.3789-.4297.7617-.6338,1.1484L-.01564,24.60506v22.9761l57.8467,21.8315c-.1231.4385-.2383.8799-.3404,1.3311L-.01564,48.46786v18.103l57.564,6.9249c-.0103.333-.0469.6591-.0469.998,0,.1406.019.2793.02.4199l-57.5371-7.4404v16.8486l57.4951-7.1689c.0069.0293.0088.0644.0137.0928.0864.4199.2178.8242.3213,1.2363l-57.8301,6.708v8.5537h24.8247l34.3496-13.1846c.0571.1231.4497.9512.5947,1.2354l-31.9487,11.9492h19.3467l14.1763-9.7852c.2802.3692.5459.7491.8437,1.1026l-12.8125,8.6826h8.6587l5.814-6.7676c.3696.3086.7519.6026,1.1372.8936l-5.0904,5.874h4.1582l2.5904-4.8682c.4482.2373.9179.4356,1.3779.6494l-2.292,4.2188h3.2705l1.0069-3.9902c.3379.0908.6757.1777,1.0175.2607l-.9365,3.7295h2.9541l-.0127-3.5352c.0928.0098.1875.0118.2803.0206.3223.0185.6416.0517.9668.0625l-.0127,3.4521h3.9756l-.877-3.7354c.47371-.0791.9561-.1337,1.42871-.2343l.89359,3.9697h3.581l-1.9833-3.918c.4492-.1875.8925-.3779,1.333-.582l2.1943,4.5h4.8525l-5.0185-5.7793c.3183-.2266.6152-.4766.9238-.7129.0703-.0566.1397-.1064.207-.1611l5.6778,6.6533h8.6699l-12.6123-8.8584c.3105-.3506.6348-.6875.9277-1.0498l13.8428,9.9082h18.5166L89.94436,81.97515c.21379-.3984.39449-.8212.59079-1.2314l33.1894,13h26.1817v-8.6367Z"/><path class="cls-43" d="M59.45115,64.76035-.01564,23.76766v.8374l58.833,41.30369C59.02145,65.52205,59.22945,65.13925,59.45115,64.76035Z"/><path class="cls-44" d="M91.98436,73.527l57.92189-6.626v-.8379l-57.9805,6.1377C91.94336,72.61385,91.98436,73.49275,91.98436,73.527Z"/><path class="cls-45" d="M77.34565,90.00835l.877,3.7354H79.668l-.89359-3.9697C78.30175,89.87465,77.81936,89.92925,77.34565,90.00835Z"/><path class="cls-46" d="M57.54836,73.49575l-57.564-6.9249v.9024l57.5371,7.4404C57.52045,74.77305,57.53805,73.82875,57.54836,73.49575Z"/><path class="cls-47" d="M87.49315,84.88535l12.6123,8.8584h2.1582l-13.8428-9.9082C88.128,84.19785,87.80365,84.53475,87.49315,84.88535Z"/><path class="cls-48" d="M91.43745,77.67735l58.4688,7.4297v-.9229l-58.13089-7.9404C91.67965,76.73005,91.55175,77.20175,91.43745,77.67735Z"/><path class="cls-49" d="M69.99025,89.75355l-1.0069,3.9902h1.0879l.9365-3.7295C70.666,89.93125,70.32815,89.84435,69.99025,89.75355Z"/><path class="cls-50" d="M65.84565,57.55866,34.66255-.00625h-.8657l30.8965,58.25C65.06785,58.00056,65.46185,57.78866,65.84565,57.55866Z"/><path class="cls-51" d="M70.25775,55.97716,55.71185-.00625h-.8886l14.1181,56.39551C69.376,56.24475,69.81345,56.10116,70.25775,55.97716Z"/><path class="cls-52" d="M66.627,88.87555l-2.5904,4.8682h1.6763l2.292-4.2188C67.54485,89.31115,67.07515,89.11285,66.627,88.87555Z"/><path class="cls-53" d="M61.32765,83.95855l-14.1763,9.7852h2.2075l12.8125-8.6826C61.87355,84.70765,61.60785,84.32775,61.32765,83.95855Z"/><path class="cls-54" d="M89.69725,64.07185l60.209-41.0122v-.8081l-60.8926,40.7217C89.24805,63.33455,89.47845,63.70175,89.69725,64.07185Z"/><path class="cls-55" d="M78.82025,56.06116,92.60155-.00625h-.874L77.50775,55.72916C77.95215,55.82,78.37985,55.95175,78.82025,56.06116Z"/><path class="cls-56" d="M73.293,90.22915c-.0928-.0088-.1875-.0108-.2803-.0206l.0127,3.5352h1.22169l.0127-3.4521C73.93455,90.28085,73.61525,90.24765,73.293,90.22915Z"/><path class="cls-57" d="M75.06636,55.28766,74.01955-.00625H73.253l.4091,55.29391C74.05955,55.26036,74.66505,55.296,75.06636,55.28766Z"/><path class="cls-58" d="M81.26565,89.82575l1.9833,3.918h1.544l-2.1943-4.5C82.15815,89.44785,81.71485,89.63825,81.26565,89.82575Z"/><path class="cls-59" d="M83.32905,57.84286,113.69336-.00625h-.88671L82.15725,57.21246Q82.75335,57.51351,83.32905,57.84286Z"/><path class="cls-60" d="M57.83105,69.41265-.01564,47.58116v.8867l57.5063,22.27589C57.59275,70.29255,57.708,69.85115,57.83105,69.41265Z"/><path class="cls-61" d="M63.83155,86.97615l-5.814,6.7676h1.8608l5.0904-5.874C64.58345,87.57875,64.20115,87.28475,63.83155,86.97615Z"/><path class="cls-62" d="M62.25336,60.46645,7.33785-.00625h-.8066l54.832,61.4385C61.65525,61.10705,61.94875,60.77985,62.25336,60.46645Z"/><path class="cls-63" d="M57.47945,77.153l-57.4951,7.1689v.8682l57.8301-6.708C57.711,78.07,57.48636,77.18225,57.47945,77.153Z"/><path class="cls-64" d="M91.75975,68.98005l58.1465-21.8388v-.8409l-58.4824,21.3955C91.55465,68.11875,91.64645,68.55335,91.75975,68.98005Z"/><path class="cls-65" d="M59.15865,80.55915l-34.3496,13.1846h2.9956l31.9487-11.9492C59.60836,81.51035,59.21575,80.68225,59.15865,80.55915Z"/><path class="cls-66" d="M89.94436,81.97515l30.83589,11.7686h2.9443l-33.1894-13C90.33885,81.154,90.15815,81.57675,89.94436,81.97515Z"/><path class="cls-67" d="M87.21775,60.75445l53.5518-60.7607h-.8028L86.26265,59.89126C86.58105,60.17835,86.91505,60.45275,87.21775,60.75445Z"/><path class="cls-68" d="M85.55075,87.25155c-.3086.2363-.6055.4863-.9238.7129l5.0185,5.7793h1.7901l-5.6778-6.6533C85.69045,87.14515,85.62105,87.195,85.55075,87.25155Z"/><circle class="cls-69" cx="74.81823" cy="72.49375" r="19.00013"/><rect class="cls-70" x="-1.71026" y="85.5684" width="151.61651" height="36.0224"/><path class="cls-71" d="M7.2573,100.0713v8.3017H17.7725v6.5186H7.2573v15.4961H.001V93.4922H18.3872v6.5791Z"/><path class="cls-71" d="M21.2183,130.3877V87.958H28.228v42.4297Z"/><path class="cls-71" d="M45.0781,131.1875c-7.9326,0-13.4052-7.0107-13.4052-14.9434s5.4726-14.9423,13.4052-14.9423c7.8711,0,13.4058,7.0097,13.4058,14.9423S52.9492,131.1875,45.0781,131.1875Zm0-23.4902c-4.1201,0-6.2719,4.4267-6.2719,8.5468s2.1518,8.5479,6.2719,8.5479,6.2725-4.4277,6.2725-8.5479S49.1982,107.6973,45.0781,107.6973Z"/><path class="cls-71" d="M69.7402,113.1699v17.2178H62.7295V114.2148a10.85225,10.85225,0,0,0-4.6738-9.3466l5.9033-3.628a14.04541,14.04541,0,0,1,3.5664,4.4893c.6777-.6768,4.5508-4.5508,8.916-4.4277l1.3535,7.1328C73.2441,108.4346,70.293,112.3086,69.7402,113.1699Z"/><path class="cls-71" d="M83.94529,97.6738A4.18165,4.18165,0,1,1,88.127,93.4922,4.18638,4.18638,0,0,1,83.94529,97.6738Zm-3.5039,32.7139V102.1006h7.0098v28.2871Z"/><path class="cls-71" d="M117.15429,131.249a14.34065,14.34065,0,0,1-3.5664-4.3047,10.95367,10.95367,0,0,1-8.9785,4.2432c-8.1797,0-12.9746-7.0107-12.9746-14.9434s4.7949-14.9423,12.9746-14.9423a10.31811,10.31811,0,0,1,6.76361,2.8896V87.958h7.00979v30.3154a10.85255,10.85255,0,0,0,4.6738,9.3467Zm-12.1152-23.5517c-4.1192,0-6.2715,4.4267-6.2715,8.5468s2.1523,8.5479,6.2715,8.5479c4.1211,0,6.33391-4.3662,6.33391-8.5479S109.16019,107.6973,105.03909,107.6973Z"/><path class="cls-71" d="M144.76759,131.249a26.5268,26.5268,0,0,1-3.1367-3.6289,11.236,11.236,0,0,1-8.2403,3.5674c-5.9648,0-10.0234-3.6289-10.0234-9.2246,0-6.0879,5.1035-9.4082,12.6074-9.4082h3.0117c0-3.2588-1.3515-5.2266-4.2422-5.2266a11.44787,11.44787,0,0,0-5.41209,1.4756l-2.76751-4.9814a17.09805,17.09805,0,0,1,8.5488-2.5205c7.4394,0,10.88471,4.6728,10.88471,10.9453v6.0263a10.85089,10.85089,0,0,0,4.67189,9.3467Zm-8.793-13.8359c-3.7519,0-5.47459,1.9678-5.47459,4.3037a3.82791,3.82791,0,0,0,3.81449,4.1201c3.2578,0,5.164-3.1357,5.164-3.1357a33.81788,33.81788,0,0,1-.4297-3.5049c0-.4307-.0625-1.4766-.0625-1.7832Z"/><path class="cls-72" d="M18.9404,170.5889V155.2158H7.2275v15.3731H.0288V133.9863H7.2275V148.749H18.9404V133.9863h7.1983v36.6026Z"/><path class="cls-72" d="M30.0347,170.5889V133.9863H49.4951v6.5274H37.2334v7.6259H47.665v6.4659H37.2334v9.456H50.1055v6.5274Z"/><path class="cls-72" d="M75.29689,171.4434l-2.501-7.6866H60.168l-2.501,7.6866-7.1987-1.7696,13.0551-35.6875h5.8565l13.1162,35.6875Zm-8.8448-27.3916-4.332,13.4209h8.6631Z"/><path class="cls-72" d="M83.06149,170.5889V133.9863h7.1983v30.0752h12.5664v6.5274Z"/><path class="cls-72" d="M113.55079,140.5137v30.0752h-7.1992V140.5137h-9.1504v-6.5274h25.5v6.5274Z"/><path class="cls-72" d="M142.709,170.5889V155.2158H130.99609v15.3731h-7.1982V133.9863h7.1982V148.749H142.709V133.9863h7.19819v36.6026Z"/></svg>